<svg width="128" height="128" xmlns="http://www.w3.org/2000/svg">

 <title/>
 <g>
  <title>background</title>
  <rect fill="none" id="canvas_background" height="402" width="582" y="-1" x="-1"/>
 </g>
 <g>
  <title>Layer 1</title>
  <path fill="#b7b7b7" id="svg_2" d="m43,82.06c-0.29,0.33 -11,-6.62 -11,-19.09s8.86,-30.58 33.6,-30.58s30.4,20.55 30.4,29.9s-5.36,30 -24.84,30c-9.64,0 -12.37,-5.45 -12.37,-5.45s-3.86,18.68 -9.33,24.49c0,0 -6.64,2.88 -3.72,-15.72c0.21,-1.34 6.33,-24.55 6.33,-24.55a23.44,23.44 0 0 1 -1.56,-8.47c0,-4.87 4.38,-11.1 9.16,-11.1s6.23,4.51 6.23,7.19s-4.38,15.49 -4.38,18.41s2.34,7 7.79,7s15.49,-5.54 15.49,-21.09s-11.4,-21.75 -19.8,-21.75s-23.77,5 -23.77,20.94c0,8.18 3.9,12 3.9,12s0.61,4.75 -2.13,7.87z" class="cls-1"/>
 </g>
</svg>