<svg width="30" height="30" xmlns="http://www.w3.org/2000/svg">

 <g>
  <title>background</title>
  <rect fill="none" id="canvas_background" height="402" width="582" y="-1" x="-1"/>
 </g>
 <g>
  <title>Layer 1</title>
  <path id="svg_1" fill="#ffd800" d="m15.143403,0.3c-6,0 -10,4 -10,9.8c0,7.8 7.2,17.5 9.1,19.4c0.1,0.1 0.3,0.2 0.5,0.2c0,0 0,0 0,0c0.2,0 0.4,-0.1 0.5,-0.3c1,-1.1 9.6,-11.1 9.6,-19.3c0.1,-6.8 -4.8,-9.8 -9.7,-9.8zm-0.4,27.5c-2.3,-2.7 -8.1,-11.1 -8.1,-17.7c0,-5.1 3.3,-8.3 8.5,-8.3c3.8,0 8.3,2.2 8.3,8.3c0,5.9 -5.2,13.7 -8.7,17.7zm0.3,-21.7c-2.2,0 -4,1.8 -4,4c0,2.2 1.8,4 4,4s4,-1.8 4,-4c0,-2.2 -1.8,-4 -4,-4zm0,6.5c-1.4,0 -2.5,-1.1 -2.5,-2.5c0,-1.4 1.1,-2.5 2.5,-2.5s2.5,1.1 2.5,2.5c0,1.4 -1.1,2.5 -2.5,2.5z"/>
 </g>
</svg>