<svg width="128" height="128" xmlns="http://www.w3.org/2000/svg">

 <title/>
 <g>
  <title>background</title>
  <rect fill="none" id="canvas_background" height="402" width="582" y="-1" x="-1"/>
 </g>
 <g>
  <title>Layer 1</title>
  <path stroke="#b7b7b7" fill="#b7b7b7" id="svg_1" d="m83,23a22,22 0 0 1 22,22l0,38a22,22 0 0 1 -22,22l-38,0a22,22 0 0 1 -22,-22l0,-38a22,22 0 0 1 22,-22l38,0m0,-8l-38,0a30.09,30.09 0 0 0 -30,30l0,38a30.09,30.09 0 0 0 30,30l38,0a30.09,30.09 0 0 0 30,-30l0,-38a30.09,30.09 0 0 0 -30,-30z" class="cls-1"/>
  <path stroke="#b7b7b7" fill="#b7b7b7" id="svg_2" d="m90.14,32a5.73,5.73 0 1 0 5.73,5.73a5.73,5.73 0 0 0 -5.73,-5.73z" class="cls-1"/>
  <path stroke="#b7b7b7" fill="#b7b7b7" id="svg_3" d="m64.27,46.47a17.68,17.68 0 1 1 -17.67,17.67a17.7,17.7 0 0 1 17.67,-17.67m0,-8a25.68,25.68 0 1 0 25.73,25.67a25.68,25.68 0 0 0 -25.73,-25.67z" class="cls-1"/>
 </g>
</svg>