<svg width="128" height="128" xmlns="http://www.w3.org/2000/svg">

 <title/>
 <g>
  <title>background</title>
  <rect fill="none" id="canvas_background" height="402" width="582" y="-1" x="-1"/>
 </g>
 <g>
  <title>Layer 1</title>
  <path fill="#b7b7b7" id="svg_1" d="m86.94,30.66a19.58,19.58 0 0 1 14,6.17s7.64,-1.5 11.86,-4.47c0,0 -1.06,5.88 -8.09,10.38l0.06,0c0.54,0 4.48,-0.1 10.68,-3c0,0 -1.19,3.39 -9.3,9.84l0,0c0.49,15.26 -7.06,43.47 -35,53.51a56.36,56.36 0 0 1 -19.15,3.43a53.69,53.69 0 0 1 -29.5,-8.67c1.5,0.15 2.85,0.15 4.2,0.15c16.52,0 24.52,-8.48 24.08,-8.48l-0.61,0c-14,0 -17.41,-13.4 -17.41,-13.4a6.46,6.46 0 0 0 3.73,0.92a20.4,20.4 0 0 0 5,-0.73c-15.8,-3.74 -15.21,-18.9 -15.21,-18.9a13.45,13.45 0 0 0 7.2,2.26a7,7 0 0 0 1.26,-0.1c-14.43,-11.42 -5.74,-25.05 -5.74,-25.05c16.26,18.87 36.25,19.54 39,19.54l0.33,0c-1.48,-8.86 2.17,-17.37 12,-22a15.35,15.35 0 0 1 6.54,-1.4m19.33,18.94l0,0m15.8,-31.6l-12.93,9.08a23.93,23.93 0 0 1 -6.34,2.65a26.16,26.16 0 0 0 -15.83,-5.54l0,0a21.69,21.69 0 0 0 -9.3,2c-9.18,4.31 -14.76,11.75 -15.87,20.68a49.25,49.25 0 0 1 -27.79,-16.59l-5.7,-6.61l-4.7,7.33a25.19,25.19 0 0 0 -3.4,16.66l-0.37,9.53a26.24,26.24 0 0 0 5.69,16.68l1,3.9a26.17,26.17 0 0 0 8.36,12.89a37.24,37.24 0 0 1 -8.13,0.86c-1.19,0 -2.42,-0.05 -3.66,-0.15l-22.93,-1.91l18.55,13.63a60.21,60.21 0 0 0 33.35,9.91a63,63 0 0 0 21.38,-3.8a57.06,57.06 0 0 0 31.7,-27.91a68.92,68.92 0 0 0 7.57,-28.65c6.63,-5.71 8.45,-9.35 8.94,-10.74l5.12,-14.57l-7,3.26l2.29,-12.59z" class="cls-1"/>
 </g>
</svg>